<svg style="display: none;" aria-hidden="true" xmlns="http://www.w3.org/2000/svg" xmlns:xlink="http://www.w3.org/1999/xlink"><symbol viewBox="0 0 18 18" fill="none" id="svg-arrow"><g stroke="#E64926"><path d="M5 9H13.5M13.5 9L11 6M13.5 9L11 12M.5.5H17.5V17.5H.5z"/></g></symbol><symbol viewBox="0 0 16 19" fill="none" id="svg-basket"><g stroke="#0F303F"><path d="M.5 6.5H15.5V18.5H.5zM13 6C13 4.67392 12.4732 3.40215 11.5355 2.46447 10.5979 1.52678 9.32608 1 8 1 6.67392 1 5.40215 1.52678 4.46447 2.46447 3.52678 3.40215 3 4.67392 3 6"/></g></symbol><symbol viewBox="0 0 20 9" fill="none" id="svg-burger"><g stroke="#0F303F"><path d="M0 1C1.45455 1 13.9394 1 20 1M10 8C10.7273 8 16.9697 8 20 8"/></g></symbol><symbol viewBox="0 0 16 16" fill="none" id="svg-close-button"><path d="M0.759766 1.17175C1.83289 2.15365 11.0438 10.5816 15.5152 14.6728" stroke="#0F303F"/></symbol><symbol viewBox="0 0 21 18" fill="none" id="svg-like"><path clip-rule="evenodd" d="M2.31802 2.31802C4.07538 0.56066 6.92462 0.56066 8.68198 2.31802L10.5 4.13604L12.318 2.31802C14.0754 0.56066 16.9246 0.56066 18.682 2.31802C20.4393 4.07538 20.4393 6.92462 18.682 8.68198L10.5 16.864L2.31802 8.68198C0.56066 6.92462 0.56066 4.07538 2.31802 2.31802Z" stroke="#0F303F" stroke-linecap="round"/></symbol><symbol viewBox="0 0 116 14" fill="none" id="svg-logo"><g fill="#0F303F" clip-path="url(#fa)"><path d="M9.36915 13.8115L8.46009 11.397H2.46692L1.49188 13.8115H0L5.60463 0 10.883 13.8115H9.36915zM5.53865 3.46355L2.87746 10.2626H8.02755L5.53865 3.46355zM18.6055 13.8116V.483643H20.0534V12.6345H24.3164V13.8116H18.6055zM32.2969 13.8116V.483643H33.7448V12.6345H38.0078V13.8116H32.2969zM45.9922 13.8116V.483643H52.7845V1.72113H47.4401V4.88954H51.0763V6.08435H47.4401V12.6523H53.0227V13.808H45.9922V13.8116zM67.8641 14C63.9932 13.9787 60.5293 11.9019 60.5293 7.44983 60.5293 3.27152 63.9053.273804 68.3809.273804 68.6192.273804 68.8574.273804 69.0957.29514V1.53263C68.8354 1.51129 68.5752 1.48996 68.3186 1.48996 64.8143 1.51129 61.9369 3.63067 61.9369 7.44983 61.9369 11.2263 65.0306 12.8443 67.8201 12.8443 68.0143 12.8443 68.2086 12.8443 68.4029 12.823V5.49758H65.4375V4.40588H69.7628V13.8293C69.1397 13.936 68.4909 14 67.8641 14zM85.1497 10.6005L87.3343 13.8116H85.7325L83.9364 11.1054C83.3536 11.3366 82.5068 11.525 81.6417 11.525 81.2092 11.525 80.7327 11.4824 80.3221 11.4006V13.8151H78.8926V.483643H81.4438C85.9231.483643 87.6752 3.04397 87.6752 6.19103 87.6789 7.76635 87.0741 9.42344 85.1497 10.6005zM81.7297 1.63579H80.3221V10.1987C80.7987 10.3444 81.1872 10.4085 81.7077 10.4085 82.2502 10.4085 82.899 10.3231 83.2876 10.1346L82.056 8.34953 83.1593 7.67744 84.4569 9.58702C85.5382 8.95761 86.3373 7.80191 86.3373 6.35461 86.3373 2.95862 84.0463 1.63579 81.7297 1.63579zM96.1172 13.8116V.483643H97.5467V13.8116H96.1172zM114.486 13.8115L113.577 11.397H107.584L106.609 13.8115H105.117L110.722 0 116 13.8115H114.486zM110.656 3.46355L107.995 10.2626H113.145L110.656 3.46355z"/></g><defs><clipPath id="fa"><path fill="#fff" d="M0 0H116V14H0z"/></clipPath></defs></symbol><symbol viewBox="0 0 16 18" fill="none" id="svg-profile"><g fill-rule="evenodd" clip-rule="evenodd" fill="#0F303F"><path d="M14.9282 17C14.8452 16.4247 14.6906 15.8607 14.4672 15.3212 14.1154 14.4719 13.5998 13.7003 12.9497 13.0503 12.2997 12.4002 11.5281 11.8846 10.6788 11.5328 9.8295 11.1811 8.91925 11 8 11 7.08075 11 6.17049 11.1811 5.32122 11.5328 4.47194 11.8846 3.70026 12.4002 3.05025 13.0503 2.40024 13.7003 1.88463 14.4719 1.53284 15.3212 1.3094 15.8607 1.15484 16.4247 1.0718 17L14.9282 17zM15.9373 17C15.8482 16.293 15.6649 15.5996 15.391 14.9385 14.989 13.9679 14.3997 13.086 13.6569 12.3431 12.914 11.6003 12.0321 11.011 11.0615 10.609 10.0909 10.2069 9.05057 10 8 10 6.94942 10 5.90914 10.2069 4.93853 10.609 3.96793 11.011 3.08601 11.6003 2.34315 12.3431 1.60028 13.086 1.011 13.9679.608963 14.9385.335133 15.5996.151816 16.293.0627457 17 .0210429 17.331 0 17.665 0 18L16 18C16 17.665 15.979 17.331 15.9373 17zM8 7C9.65685 7 11 5.65685 11 4 11 2.34315 9.65685 1 8 1 6.34315 1 5 2.34315 5 4 5 5.65685 6.34315 7 8 7zM8 8C10.2091 8 12 6.20914 12 4 12 1.79086 10.2091 0 8 0 5.79086 0 4 1.79086 4 4 4 6.20914 5.79086 8 8 8z"/></g></symbol></svg>