<svg style="display: none;" aria-hidden="true" xmlns="http://www.w3.org/2000/svg" xmlns:xlink="http://www.w3.org/1999/xlink"><symbol viewBox="0 0 18 18" fill="none" id="svg-arrow"><g stroke="#E64926"><path d="M5 9H13.5M13.5 9L11 6M13.5 9L11 12M.5.5H17.5V17.5H.5z"/></g></symbol><symbol viewBox="0 0 16 19" fill="none" id="svg-basket"><g stroke="#0F303F"><path d="M.5 6.5H15.5V18.5H.5zM13 6C13 4.67392 12.4732 3.40215 11.5355 2.46447 10.5979 1.52678 9.32608 1 8 1 6.67392 1 5.40215 1.52678 4.46447 2.46447 3.52678 3.40215 3 4.67392 3 6"/></g></symbol><symbol viewBox="0 0 21 18" fill="none" id="svg-like"><path clip-rule="evenodd" d="M2.31802 2.31802C4.07538 0.56066 6.92462 0.56066 8.68198 2.31802L10.5 4.13604L12.318 2.31802C14.0754 0.56066 16.9246 0.56066 18.682 2.31802C20.4393 4.07538 20.4393 6.92462 18.682 8.68198L10.5 16.864L2.31802 8.68198C0.56066 6.92462 0.56066 4.07538 2.31802 2.31802Z" stroke="#0F303F" stroke-linecap="round"/></symbol><symbol viewBox="0 0 16 18" fill="none" id="svg-profile"><g fill-rule="evenodd" clip-rule="evenodd" fill="#0F303F"><path d="M14.9282 17C14.8452 16.4247 14.6906 15.8607 14.4672 15.3212 14.1154 14.4719 13.5998 13.7003 12.9497 13.0503 12.2997 12.4002 11.5281 11.8846 10.6788 11.5328 9.8295 11.1811 8.91925 11 8 11 7.08075 11 6.17049 11.1811 5.32122 11.5328 4.47194 11.8846 3.70026 12.4002 3.05025 13.0503 2.40024 13.7003 1.88463 14.4719 1.53284 15.3212 1.3094 15.8607 1.15484 16.4247 1.0718 17L14.9282 17zM15.9373 17C15.8482 16.293 15.6649 15.5996 15.391 14.9385 14.989 13.9679 14.3997 13.086 13.6569 12.3431 12.914 11.6003 12.0321 11.011 11.0615 10.609 10.0909 10.2069 9.05057 10 8 10 6.94942 10 5.90914 10.2069 4.93853 10.609 3.96793 11.011 3.08601 11.6003 2.34315 12.3431 1.60028 13.086 1.011 13.9679.608963 14.9385.335133 15.5996.151816 16.293.0627457 17 .0210429 17.331 0 17.665 0 18L16 18C16 17.665 15.979 17.331 15.9373 17zM8 7C9.65685 7 11 5.65685 11 4 11 2.34315 9.65685 1 8 1 6.34315 1 5 2.34315 5 4 5 5.65685 6.34315 7 8 7zM8 8C10.2091 8 12 6.20914 12 4 12 1.79086 10.2091 0 8 0 5.79086 0 4 1.79086 4 4 4 6.20914 5.79086 8 8 8z"/></g></symbol></svg>