<svg width="116" height="14" viewBox="0 0 116 14" fill="none" xmlns="http://www.w3.org/2000/svg">
<g id="Frame" clip-path="url(#clip0_157_36)">
<g id="Group">
<path id="Vector" d="M9.36915 13.8115L8.46009 11.397H2.46692L1.49188 13.8115H0L5.60463 0L10.883 13.8115H9.36915ZM5.53865 3.46355L2.87746 10.2626H8.02755L5.53865 3.46355Z" fill="#0F303F"/>
<path id="Vector_2" d="M18.6055 13.8116V0.483643H20.0534V12.6345H24.3164V13.8116H18.6055Z" fill="#0F303F"/>
<path id="Vector_3" d="M32.2969 13.8116V0.483643H33.7448V12.6345H38.0078V13.8116H32.2969Z" fill="#0F303F"/>
<path id="Vector_4" d="M45.9922 13.8116V0.483643H52.7845V1.72113H47.4401V4.88954H51.0763V6.08435H47.4401V12.6523H53.0227V13.808H45.9922V13.8116Z" fill="#0F303F"/>
<path id="Vector_5" d="M67.8641 14C63.9932 13.9787 60.5293 11.9019 60.5293 7.44983C60.5293 3.27152 63.9053 0.273804 68.3809 0.273804C68.6192 0.273804 68.8574 0.273804 69.0957 0.29514V1.53263C68.8354 1.51129 68.5752 1.48996 68.3186 1.48996C64.8143 1.51129 61.9369 3.63067 61.9369 7.44983C61.9369 11.2263 65.0306 12.8443 67.8201 12.8443C68.0143 12.8443 68.2086 12.8443 68.4029 12.823V5.49758H65.4375V4.40588H69.7628V13.8293C69.1397 13.936 68.4909 14 67.8641 14Z" fill="#0F303F"/>
<path id="Vector_6" d="M85.1497 10.6005L87.3343 13.8116H85.7325L83.9364 11.1054C83.3536 11.3366 82.5068 11.525 81.6417 11.525C81.2092 11.525 80.7327 11.4824 80.3221 11.4006V13.8151H78.8926V0.483643H81.4438C85.9231 0.483643 87.6752 3.04397 87.6752 6.19103C87.6789 7.76635 87.0741 9.42344 85.1497 10.6005ZM81.7297 1.63579H80.3221V10.1987C80.7987 10.3444 81.1872 10.4085 81.7077 10.4085C82.2502 10.4085 82.899 10.3231 83.2876 10.1346L82.056 8.34953L83.1593 7.67744L84.4569 9.58702C85.5382 8.95761 86.3373 7.80191 86.3373 6.35461C86.3373 2.95862 84.0463 1.63579 81.7297 1.63579Z" fill="#0F303F"/>
<path id="Vector_7" d="M96.1172 13.8116V0.483643H97.5467V13.8116H96.1172Z" fill="#0F303F"/>
<path id="Vector_8" d="M114.486 13.8115L113.577 11.397H107.584L106.609 13.8115H105.117L110.722 0L116 13.8115H114.486ZM110.656 3.46355L107.995 10.2626H113.145L110.656 3.46355Z" fill="#0F303F"/>
</g>
</g>
<defs>
<clipPath id="clip0_157_36">
<rect width="116" height="14" fill="white"/>
</clipPath>
</defs>
</svg>
